<svg id="svg" xmlns="http://www.w3.org/2000/svg" xmlns:xlink="http://www.w3.org/1999/xlink" width="400" height="203.95833333333331" viewBox="0, 0, 400,203.95833333333331"><g id="svgg"><path id="path0" d="M137.260 0.857 C 134.576 2.575,134.293 6.308,136.577 9.881 C 137.870 11.902,137.834 12.069,135.935 12.904 C 134.822 13.393,134.185 13.826,133.728 14.402 C 133.375 14.848,132.035 15.995,130.751 16.950 L 128.415 18.687 127.355 21.270 C 126.277 23.900,123.988 30.706,122.598 35.417 C 122.176 36.849,121.601 38.568,121.322 39.236 L 120.813 40.452 121.237 41.170 C 122.013 42.486,121.443 46.427,119.631 52.280 C 118.822 54.891,117.547 55.509,92.581 65.388 C 77.803 71.236,74.928 72.425,68.315 75.425 C 62.192 78.203,59.176 79.446,51.146 82.498 C 47.479 83.892,43.354 85.488,41.979 86.045 C 40.604 86.602,37.932 87.665,36.042 88.408 C 34.151 89.151,29.370 91.139,25.417 92.825 C 11.216 98.881,8.465 100.000,7.763 100.001 C 7.446 100.002,6.214 100.283,5.025 100.626 C 3.836 100.969,2.581 101.250,2.237 101.250 C 1.023 101.250,-0.000 101.688,-0.000 102.208 C 0.000 102.859,0.237 102.964,2.394 103.268 C 3.426 103.413,4.693 103.620,5.208 103.728 C 6.417 103.981,9.170 103.688,9.472 103.274 C 9.631 103.057,10.297 102.935,11.775 102.852 C 15.525 102.640,16.759 102.314,16.836 101.510 L 16.901 100.833 15.821 100.833 C 14.864 100.833,14.772 100.796,15.011 100.507 C 15.402 100.036,16.355 99.583,16.957 99.583 C 17.242 99.583,17.529 99.497,17.594 99.391 C 17.660 99.285,18.016 99.132,18.387 99.051 C 19.067 98.901,21.863 97.639,25.313 95.924 C 28.584 94.297,37.039 90.733,48.750 86.045 C 54.995 83.545,62.401 80.497,65.208 79.271 C 75.235 74.894,85.684 70.506,96.250 66.237 C 112.959 59.485,114.894 58.687,118.195 57.187 C 120.931 55.943,121.346 55.810,121.812 56.023 C 122.454 56.315,123.059 56.154,123.751 55.508 C 124.196 55.092,124.384 55.046,125.041 55.194 C 125.794 55.364,125.812 55.353,125.874 54.715 C 125.929 54.150,126.100 53.981,127.145 53.459 C 128.582 52.740,132.984 51.039,133.101 51.157 C 133.183 51.239,133.439 58.498,133.711 68.468 C 133.872 74.348,133.913 74.501,135.381 74.624 L 136.135 74.688 137.347 79.583 C 138.847 85.646,139.088 88.524,138.187 89.595 L 137.671 90.208 128.140 90.208 C 122.898 90.208,115.914 90.270,112.621 90.346 L 106.632 90.485 106.289 91.007 C 104.834 93.229,107.083 94.971,111.957 95.397 C 113.866 95.564,116.458 96.347,116.458 96.757 C 116.458 96.819,116.122 97.010,115.712 97.181 C 115.029 97.467,114.977 97.547,115.104 98.126 C 115.988 102.149,116.272 102.392,119.893 102.218 C 122.345 102.101,122.399 102.108,122.931 102.618 C 123.698 103.353,127.010 103.766,132.527 103.816 L 136.824 103.854 136.654 104.303 C 136.512 104.677,136.586 104.794,137.096 105.005 C 138.483 105.580,137.801 106.002,136.309 105.492 C 134.991 105.041,124.503 105.243,123.076 105.747 C 122.597 105.915,121.334 106.164,120.269 106.298 C 118.463 106.526,118.333 106.574,118.333 107.019 C 118.333 107.414,118.190 107.518,117.488 107.630 C 117.023 107.705,116.442 107.927,116.198 108.125 L 115.754 108.485 116.234 108.741 C 116.610 108.943,118.140 108.948,123.390 108.767 C 129.642 108.552,130.092 108.560,130.469 108.901 C 130.797 109.198,131.404 109.285,133.759 109.372 C 136.936 109.490,137.026 109.526,137.121 110.729 C 137.182 111.492,137.276 111.610,138.229 112.124 C 139.623 112.875,140.020 114.861,139.223 117.103 C 138.881 118.068,138.881 118.147,139.235 118.746 C 139.638 119.428,139.634 119.443,138.578 120.829 C 137.895 121.727,137.873 121.812,138.013 123.017 C 138.292 125.429,138.337 125.277,137.292 125.454 C 135.686 125.727,135.436 125.825,135.195 126.275 C 134.873 126.877,135.452 128.359,136.281 129.057 C 136.813 129.505,136.846 129.583,136.500 129.583 C 135.490 129.583,134.958 131.979,135.630 133.498 C 136.125 134.616,136.137 134.929,135.725 135.915 C 135.442 136.594,135.442 136.736,135.730 137.293 C 136.003 137.821,136.016 138.195,135.820 139.813 C 135.693 140.858,135.652 141.914,135.729 142.159 C 135.806 142.404,135.948 143.917,136.045 145.521 C 136.142 147.125,136.280 148.629,136.352 148.862 C 136.437 149.136,136.326 149.487,136.039 149.852 L 135.595 150.417 132.224 150.415 C 126.428 150.413,123.752 150.060,127.257 149.759 C 135.829 149.023,135.858 149.019,135.320 148.626 C 135.049 148.427,134.316 148.331,133.033 148.327 C 131.745 148.322,131.023 148.227,130.760 148.028 C 130.478 147.814,129.976 147.765,128.885 147.843 L 127.396 147.949 127.917 147.521 C 128.299 147.206,128.740 147.091,129.576 147.088 C 130.584 147.084,130.679 147.048,130.404 146.773 C 129.558 145.927,124.764 145.648,122.760 146.329 C 121.470 146.767,121.426 146.891,122.396 147.354 C 122.797 147.545,123.125 147.812,123.125 147.947 C 123.125 148.502,122.054 150.000,121.658 150.000 C 121.434 150.000,121.250 150.082,121.250 150.183 C 121.250 150.535,121.877 150.881,122.309 150.769 C 122.915 150.610,123.739 152.495,123.899 154.405 C 123.987 155.460,124.161 156.028,124.593 156.682 L 125.170 157.553 124.632 158.016 L 124.094 158.479 124.547 159.212 C 124.796 159.615,125.000 160.080,125.000 160.245 C 125.000 160.409,125.238 160.866,125.528 161.260 L 126.056 161.976 125.216 162.383 C 124.185 162.883,124.138 163.361,125.066 163.935 C 126.349 164.728,126.582 165.132,125.841 165.280 C 124.606 165.527,125.274 166.716,127.231 167.754 C 128.274 168.307,128.300 168.378,127.599 168.753 C 126.892 169.131,127.013 169.343,128.321 170.012 L 129.430 170.580 128.789 170.721 C 127.947 170.906,128.219 171.633,129.343 172.203 L 130.104 172.589 128.854 172.706 C 126.201 172.954,126.100 173.516,128.497 174.688 C 130.335 175.586,130.514 175.769,129.651 175.872 C 128.942 175.956,128.845 176.258,129.354 176.804 C 129.827 177.313,132.074 177.708,134.488 177.708 C 136.511 177.708,136.497 178.041,134.468 178.171 C 132.564 178.293,132.224 178.533,132.914 179.268 L 133.406 179.792 132.015 179.792 C 131.251 179.792,130.625 179.871,130.625 179.968 C 130.625 180.231,131.291 180.765,131.823 180.927 C 132.438 181.114,132.425 181.458,131.802 181.458 C 131.153 181.458,130.000 181.868,130.000 182.099 C 130.000 182.856,131.060 183.021,135.925 183.021 C 140.483 183.021,140.726 183.041,140.800 183.419 C 140.874 183.805,140.726 183.814,136.116 183.694 C 130.912 183.559,130.210 183.638,131.150 184.254 C 131.954 184.781,134.483 185.062,137.202 184.926 C 139.528 184.810,140.417 184.895,140.417 185.233 C 140.417 185.334,139.549 185.418,138.490 185.420 C 135.821 185.424,135.250 186.280,137.697 186.608 C 139.138 186.802,138.862 187.083,137.231 187.083 C 134.564 187.083,132.500 187.322,132.500 187.630 C 132.500 188.402,134.650 189.104,137.601 189.295 C 139.660 189.428,139.777 189.461,140.197 190.030 C 140.439 190.357,140.775 190.625,140.944 190.625 C 141.420 190.625,141.306 190.957,140.691 191.360 L 140.132 191.726 140.610 192.113 C 140.873 192.326,141.275 192.500,141.504 192.500 C 141.815 192.500,141.884 192.592,141.779 192.865 C 141.701 193.065,141.588 193.476,141.527 193.778 C 141.464 194.088,141.195 194.428,140.910 194.558 C 140.157 194.901,140.082 195.364,140.676 196.002 C 140.963 196.310,141.286 196.839,141.394 197.176 C 141.668 198.037,142.162 198.113,146.195 197.922 C 149.842 197.749,150.417 197.646,150.417 197.165 C 150.417 196.975,150.657 196.875,151.118 196.875 C 151.514 196.875,152.060 196.685,152.373 196.439 L 152.927 196.003 152.333 194.906 L 151.738 193.808 152.379 193.587 C 152.732 193.466,153.423 193.303,153.915 193.226 C 154.636 193.113,154.764 193.031,154.576 192.803 C 154.345 192.525,153.980 192.388,152.031 191.849 C 150.317 191.375,150.761 191.007,152.865 191.158 C 156.194 191.397,156.456 190.316,153.160 189.938 L 151.292 189.723 151.164 188.924 C 150.920 187.392,151.774 186.948,155.199 186.824 C 156.751 186.767,158.184 186.652,158.384 186.568 C 158.867 186.364,158.644 186.042,158.021 186.042 C 157.748 186.042,157.467 185.948,157.396 185.833 C 157.313 185.699,158.210 185.624,159.936 185.622 C 163.284 185.619,163.593 185.550,163.285 184.873 C 163.140 184.555,162.754 184.280,162.229 184.123 C 161.262 183.834,161.450 183.704,163.385 183.328 C 166.190 182.783,164.095 182.018,159.375 181.864 C 157.370 181.798,156.497 181.727,157.436 181.706 C 159.184 181.666,159.606 181.493,159.060 181.040 C 158.516 180.588,158.722 180.417,159.806 180.417 C 160.769 180.417,160.850 180.380,160.728 179.997 C 160.573 179.507,162.347 178.547,163.415 178.544 C 163.746 178.543,164.402 178.360,164.873 178.137 C 165.344 177.914,166.268 177.673,166.927 177.601 C 168.264 177.455,168.250 177.468,167.801 176.783 C 167.416 176.194,167.676 175.936,168.458 176.132 C 170.165 176.561,171.856 175.596,170.432 175.006 C 169.110 174.459,169.415 173.876,171.129 173.675 C 173.058 173.448,173.616 173.166,173.249 172.605 L 172.938 172.131 175.323 172.175 L 177.708 172.219 177.708 171.634 C 177.708 171.165,177.539 170.957,176.847 170.577 C 176.373 170.317,175.787 169.984,175.545 169.837 C 175.302 169.691,174.753 169.600,174.323 169.635 C 173.795 169.678,173.542 169.612,173.542 169.433 C 173.542 168.869,178.022 169.082,178.914 169.688 C 179.674 170.204,180.208 170.354,180.208 170.050 C 180.208 169.963,180.026 169.778,179.804 169.639 C 179.582 169.501,179.222 168.986,179.004 168.496 C 178.671 167.743,178.408 167.509,177.325 166.993 C 176.619 166.657,176.042 166.305,176.042 166.212 C 176.042 166.004,175.820 166.058,177.917 165.749 L 179.688 165.488 178.750 165.040 C 177.628 164.504,176.278 164.461,174.137 164.892 C 173.294 165.062,171.573 165.233,170.313 165.273 C 168.688 165.323,167.827 165.446,167.354 165.693 C 166.561 166.108,165.970 166.135,165.351 165.783 C 165.101 165.641,163.771 165.463,162.396 165.388 C 161.021 165.312,159.685 165.183,159.427 165.101 C 158.532 164.816,158.953 165.377,160.041 165.919 C 160.958 166.376,161.402 166.458,162.950 166.458 C 164.520 166.458,164.806 166.513,164.985 166.847 C 165.127 167.112,165.531 167.281,166.257 167.377 C 166.953 167.469,167.290 167.605,167.231 167.769 C 167.132 168.052,166.939 168.050,165.677 167.753 C 164.824 167.552,164.792 167.562,164.792 168.043 C 164.792 168.623,163.894 168.726,162.497 168.308 C 161.963 168.148,161.527 168.139,161.118 168.280 L 160.521 168.485 161.197 168.878 C 162.181 169.450,162.082 169.507,159.844 169.655 C 154.793 169.989,154.695 169.960,154.668 168.125 C 154.657 167.380,154.475 166.044,154.265 165.156 L 153.882 163.540 154.455 162.941 C 154.941 162.435,155.254 162.320,156.486 162.199 C 158.286 162.022,158.531 161.401,156.843 161.292 L 155.877 161.229 155.733 160.250 C 155.653 159.701,155.393 159.059,155.142 158.789 C 154.859 158.484,154.717 158.096,154.755 157.733 C 154.790 157.398,154.646 156.950,154.409 156.657 L 154.003 156.156 154.617 155.263 C 155.967 153.301,156.024 152.591,154.899 151.707 C 154.433 151.340,154.413 151.269,154.710 151.023 C 154.951 150.823,155.007 150.541,154.917 149.979 C 154.795 149.220,155.560 148.182,156.460 147.881 C 156.789 147.772,156.269 146.505,155.679 145.980 C 155.080 145.447,155.497 143.966,156.322 143.691 C 156.678 143.573,156.920 143.308,156.999 142.951 C 157.067 142.646,157.165 142.237,157.217 142.043 C 157.270 141.848,157.118 141.262,156.880 140.740 L 156.447 139.790 156.900 138.738 L 157.353 137.686 156.868 136.652 C 156.233 135.296,156.538 134.569,158.210 133.459 C 158.851 133.034,159.375 132.563,159.375 132.413 C 159.375 131.860,158.306 131.063,157.377 130.924 C 156.092 130.731,156.114 130.122,157.437 129.271 C 157.971 128.927,158.595 128.390,158.825 128.077 L 159.242 127.508 158.758 126.475 L 158.273 125.441 158.751 124.165 C 159.201 122.960,159.213 122.806,158.953 121.431 C 158.728 120.239,158.727 119.783,158.945 118.932 C 159.108 118.295,159.158 117.464,159.074 116.788 C 158.937 115.696,158.942 115.682,159.600 115.410 C 159.965 115.259,160.537 114.905,160.871 114.624 C 161.391 114.186,161.751 114.098,163.395 114.009 C 165.516 113.894,165.884 113.729,165.792 112.935 C 165.736 112.451,165.807 112.389,166.496 112.332 C 167.147 112.278,167.283 112.179,167.393 111.680 L 167.522 111.092 171.417 111.003 C 175.219 110.917,175.321 110.926,175.670 111.367 C 175.912 111.673,176.363 111.864,177.061 111.957 C 178.317 112.123,178.315 112.119,178.176 114.612 C 178.068 116.568,178.078 116.627,178.564 116.892 C 179.236 117.259,186.300 117.173,187.917 116.778 C 188.547 116.624,189.953 116.437,191.042 116.363 C 192.130 116.290,193.535 116.084,194.164 115.907 L 195.307 115.585 194.696 115.059 C 194.092 114.539,194.288 113.958,195.067 113.958 C 195.180 113.958,195.205 113.531,195.127 112.940 C 194.972 111.772,195.561 111.353,196.511 111.955 C 197.303 112.456,198.306 112.579,201.875 112.612 C 206.454 112.654,207.470 112.810,207.735 113.508 C 207.847 113.802,208.355 114.488,208.865 115.033 C 209.570 115.787,209.792 116.188,209.795 116.710 C 209.798 117.506,210.185 118.362,210.603 118.500 C 210.845 118.581,210.869 118.205,210.747 116.222 C 210.597 113.787,210.681 113.125,211.140 113.125 C 211.327 113.125,211.432 113.726,211.503 115.209 C 211.581 116.828,211.687 117.386,211.980 117.709 C 212.795 118.610,212.917 118.300,212.917 115.325 L 212.917 112.526 213.802 112.395 C 214.289 112.323,217.453 112.318,220.833 112.384 C 224.214 112.450,227.809 112.498,228.822 112.490 C 230.371 112.478,230.709 112.536,230.941 112.852 C 231.173 113.170,231.669 113.253,234.098 113.382 C 235.682 113.466,238.385 113.624,240.104 113.733 C 241.823 113.841,245.807 113.992,248.958 114.069 C 254.496 114.203,256.250 114.379,256.250 114.800 C 256.250 114.910,256.115 115.000,255.950 115.000 C 255.407 115.000,255.338 115.474,255.823 115.867 C 256.148 116.130,256.639 116.250,257.391 116.250 C 258.170 116.250,258.638 116.370,259.015 116.667 C 259.727 117.227,260.900 117.220,261.277 116.654 C 261.538 116.261,261.648 116.244,262.566 116.449 C 263.634 116.689,263.958 116.616,263.958 116.134 C 263.958 115.909,264.245 115.833,265.104 115.833 L 266.250 115.833 266.250 116.563 C 266.250 117.400,266.453 117.462,267.256 116.869 C 268.220 116.156,276.680 116.141,277.675 116.850 C 278.299 117.295,278.452 117.322,279.157 117.111 C 279.986 116.862,283.333 116.780,283.333 117.008 C 283.333 117.082,283.169 117.263,282.969 117.411 C 282.323 117.888,282.926 118.053,286.228 118.302 C 288.810 118.496,289.485 118.612,289.692 118.895 C 289.908 119.192,290.449 119.262,293.096 119.337 C 296.364 119.430,297.304 119.787,294.311 119.798 L 292.604 119.805 293.189 120.319 C 293.652 120.727,294.000 120.833,294.873 120.833 C 295.477 120.833,296.489 120.937,297.122 121.064 L 298.271 121.295 298.088 122.262 C 297.842 123.568,298.287 123.958,300.023 123.958 C 300.698 123.958,301.250 124.044,301.250 124.150 C 301.250 124.255,301.302 124.476,301.366 124.642 C 301.446 124.851,301.288 124.982,300.851 125.069 C 299.625 125.315,299.047 126.309,299.732 126.994 C 300.046 127.308,300.399 127.336,302.611 127.224 C 306.296 127.037,307.750 127.598,305.504 128.339 C 304.329 128.727,304.856 129.501,307.052 130.609 C 308.582 131.381,308.929 131.398,309.888 130.748 C 310.317 130.457,311.222 130.145,312.038 130.008 C 314.731 129.553,314.377 128.453,311.397 128.014 C 310.180 127.834,310.214 127.523,311.506 127.043 C 314.374 125.978,328.296 125.004,332.292 125.588 L 333.438 125.756 332.604 126.002 C 332.146 126.137,331.394 126.248,330.934 126.249 C 330.474 126.249,329.760 126.431,329.346 126.653 C 328.875 126.906,327.790 127.141,326.433 127.285 C 322.169 127.739,321.137 127.883,320.559 128.107 C 320.237 128.231,319.534 128.335,318.997 128.337 C 317.864 128.340,317.285 128.589,317.738 128.878 C 318.195 129.169,322.905 129.016,327.396 128.565 C 333.375 127.965,336.859 127.827,339.086 128.101 C 342.360 128.504,343.342 129.101,340.909 129.209 C 339.688 129.264,339.505 129.327,339.351 129.744 C 338.854 131.095,341.368 131.474,346.616 130.842 C 348.420 130.625,350.974 130.390,352.292 130.321 C 353.609 130.252,355.180 130.141,355.781 130.074 C 357.400 129.894,357.118 130.283,355.325 130.706 C 354.211 130.968,353.805 131.150,353.881 131.350 C 354.031 131.741,353.759 131.799,348.958 132.393 C 341.587 133.306,341.832 134.631,349.254 133.986 C 350.753 133.855,355.026 133.606,358.750 133.432 C 362.474 133.257,366.224 133.027,367.083 132.921 C 369.567 132.613,372.708 132.491,372.708 132.702 C 372.708 133.068,371.778 133.542,371.060 133.542 C 370.663 133.542,369.816 133.633,369.179 133.745 C 368.542 133.856,366.983 134.026,365.714 134.121 C 362.866 134.335,361.109 135.168,361.663 136.042 C 361.962 136.514,368.129 136.424,374.479 135.855 C 379.275 135.426,388.529 134.957,388.733 135.133 C 388.956 135.327,388.413 135.409,385.411 135.640 C 382.358 135.875,382.147 135.920,381.416 136.488 C 380.664 137.072,380.599 137.084,378.889 136.952 C 376.022 136.732,375.282 137.288,377.142 138.265 C 378.074 138.754,384.439 138.876,385.519 138.425 C 385.914 138.260,386.568 138.125,386.972 138.125 C 387.870 138.125,389.784 137.114,389.789 136.638 C 389.792 136.289,390.110 136.211,392.708 135.924 C 395.292 135.639,397.485 134.497,396.787 133.801 C 396.701 133.716,394.881 133.645,392.742 133.645 C 386.431 133.643,384.140 132.941,387.905 132.162 C 391.540 131.410,391.178 130.923,386.528 130.313 C 384.254 130.014,383.865 129.894,384.449 129.670 C 385.185 129.388,383.973 128.542,382.833 128.542 C 382.396 128.542,382.292 128.442,382.292 128.026 C 382.292 127.664,382.106 127.414,381.667 127.188 C 381.296 126.996,381.042 126.699,381.042 126.458 C 381.042 125.936,380.339 125.494,379.220 125.314 C 378.268 125.161,377.938 124.908,378.439 124.716 C 379.960 124.132,377.438 121.879,375.260 121.876 C 374.335 121.875,374.037 121.460,374.697 121.091 C 375.239 120.787,373.015 118.838,371.914 118.652 C 371.239 118.538,371.042 118.413,371.042 118.099 C 371.042 117.459,370.502 116.794,369.107 115.715 C 367.784 114.692,366.230 113.366,365.090 112.289 C 363.919 111.181,361.655 110.000,360.703 110.000 C 359.960 110.000,359.819 109.928,359.710 109.496 C 359.567 108.924,359.292 108.844,356.771 108.640 C 355.854 108.565,354.542 108.373,353.854 108.214 C 353.167 108.054,352.216 107.921,351.741 107.920 C 351.184 107.918,350.837 107.810,350.763 107.616 C 350.469 106.850,349.584 106.591,346.800 106.454 C 344.748 106.353,343.802 106.212,343.021 105.891 C 342.448 105.656,341.182 105.269,340.208 105.031 C 339.234 104.794,337.745 104.410,336.899 104.177 C 336.052 103.945,334.599 103.700,333.669 103.633 C 332.740 103.566,331.464 103.337,330.833 103.125 C 330.203 102.912,329.176 102.679,328.550 102.606 C 327.925 102.534,326.987 102.297,326.467 102.080 C 325.947 101.863,325.005 101.587,324.375 101.467 C 321.809 100.980,321.155 100.821,320.979 100.646 C 320.878 100.544,320.430 100.510,319.985 100.570 C 319.194 100.676,318.125 100.241,318.125 99.813 C 318.125 99.490,320.077 98.795,321.667 98.553 C 324.362 98.141,357.624 90.195,360.208 89.345 C 363.645 88.215,364.862 87.330,371.008 81.489 C 375.696 77.034,381.209 71.936,385.000 68.552 C 387.442 66.371,388.197 65.964,393.942 63.728 C 397.956 62.165,399.919 60.344,398.856 59.169 C 398.253 58.503,397.487 58.620,390.833 60.404 C 387.139 61.394,384.165 62.083,383.585 62.083 C 383.347 62.083,382.185 62.318,381.003 62.604 C 379.042 63.080,378.605 63.113,375.996 62.989 C 373.160 62.854,373.131 62.857,372.317 63.396 C 371.771 63.757,370.881 64.047,369.655 64.263 C 368.641 64.441,367.438 64.723,366.979 64.889 C 366.521 65.054,365.818 65.195,365.417 65.201 C 364.250 65.218,357.001 66.382,354.271 66.990 C 348.860 68.195,348.183 68.317,346.875 68.329 C 345.289 68.344,342.088 69.125,341.037 69.754 C 340.232 70.236,338.036 70.616,333.039 71.136 C 331.330 71.314,328.407 71.788,326.545 72.188 C 324.682 72.589,322.892 72.917,322.567 72.917 C 322.242 72.917,321.649 73.013,321.249 73.130 C 320.552 73.334,314.535 74.375,314.052 74.375 C 313.614 74.375,310.368 69.281,308.921 66.320 C 306.398 61.162,305.942 61.426,303.846 69.259 C 302.669 73.661,302.031 75.366,301.458 75.648 C 300.497 76.123,298.728 76.530,296.065 76.890 C 294.416 77.113,292.518 77.437,291.847 77.611 C 291.175 77.785,290.040 77.908,289.323 77.884 C 288.142 77.845,286.972 77.974,283.229 78.558 C 279.609 79.123,276.440 79.210,275.423 78.772 C 272.909 77.691,269.827 77.850,267.307 79.190 C 265.820 79.981,265.719 79.963,265.130 78.800 C 264.853 78.255,264.423 77.575,264.173 77.290 L 263.719 76.771 263.842 77.500 C 263.910 77.901,264.214 78.722,264.517 79.323 C 265.190 80.658,265.243 80.604,263.046 80.831 C 262.059 80.933,261.172 81.065,261.074 81.126 C 260.976 81.186,259.874 81.332,258.625 81.449 C 257.376 81.567,255.885 81.760,255.313 81.878 C 252.999 82.354,221.382 85.138,215.573 85.377 L 212.083 85.521 212.082 84.792 C 212.077 81.128,210.056 80.674,208.333 83.949 L 207.188 86.127 204.158 86.173 C 202.441 86.200,200.411 86.362,199.471 86.548 C 198.024 86.834,194.282 87.319,194.265 87.222 C 194.261 87.203,194.098 86.835,193.903 86.404 C 193.572 85.678,193.571 85.560,193.883 84.780 C 194.202 83.983,194.199 83.923,193.829 83.643 C 193.151 83.129,191.812 82.567,190.625 82.296 C 189.287 81.991,187.133 81.208,185.918 80.585 C 185.113 80.173,184.971 80.163,183.409 80.417 C 182.153 80.621,181.646 80.628,181.307 80.447 C 180.676 80.109,180.625 80.136,180.625 80.808 C 180.625 81.338,180.456 81.495,179.163 82.175 C 177.470 83.065,176.992 83.639,177.220 84.509 C 177.306 84.836,177.350 85.273,177.319 85.479 C 177.288 85.685,177.499 86.040,177.788 86.268 C 178.978 87.204,178.136 87.520,173.125 88.016 C 171.234 88.203,169.286 88.492,168.795 88.657 C 167.494 89.096,166.458 89.059,166.458 88.574 C 166.458 87.652,165.788 87.428,163.472 87.578 C 158.956 87.870,158.192 86.853,157.796 80.028 C 157.652 77.549,157.380 74.771,157.192 73.854 C 156.754 71.724,155.434 66.898,155.141 66.354 C 154.879 65.869,154.556 61.694,154.590 59.244 C 154.611 57.765,154.524 57.329,153.904 55.806 C 153.513 54.847,153.024 53.406,152.817 52.604 C 152.610 51.802,152.349 50.968,152.238 50.750 C 151.738 49.773,151.674 47.642,152.123 46.915 C 152.543 46.235,152.551 46.056,152.248 44.084 C 152.198 43.758,152.553 43.554,154.271 42.919 C 155.417 42.495,157.714 41.562,159.375 40.844 C 163.276 39.159,165.125 38.419,167.220 37.703 L 168.919 37.123 169.506 37.736 C 170.308 38.574,170.902 38.690,171.498 38.126 C 171.763 37.876,172.526 37.393,173.193 37.053 C 174.406 36.437,174.408 36.434,174.276 35.657 L 174.145 34.878 175.301 34.398 C 177.916 33.314,176.486 32.264,173.599 33.147 C 172.796 33.393,172.649 33.377,171.904 32.958 C 171.456 32.706,170.897 32.500,170.663 32.500 C 170.423 32.500,170.034 32.215,169.773 31.849 C 169.518 31.491,168.879 31.007,168.353 30.775 C 166.993 30.174,165.571 28.912,164.018 26.927 C 163.279 25.982,161.704 24.360,160.519 23.322 C 158.253 21.338,156.740 19.698,156.191 18.633 C 155.026 16.367,152.566 14.776,148.813 13.860 C 145.668 13.093,145.754 13.178,146.164 11.250 C 146.603 9.187,146.455 7.646,145.655 5.936 C 145.118 4.788,145.039 4.419,145.144 3.535 C 145.433 1.097,144.300 0.181,140.833 0.051 L 138.646 -0.031 137.260 0.857 M155.109 28.978 C 157.394 31.293,159.406 32.752,161.110 33.329 C 162.639 33.847,165.678 35.424,165.778 35.752 C 165.817 35.880,164.342 36.592,162.455 37.355 C 157.496 39.361,152.116 41.458,151.931 41.458 C 151.671 41.457,151.055 37.729,151.054 36.146 C 151.053 35.344,150.911 33.891,150.738 32.917 C 150.305 30.472,150.322 30.291,151.138 28.588 C 152.187 26.398,152.601 26.438,155.109 28.978 M132.058 39.821 C 132.243 40.617,132.213 41.058,131.888 42.321 C 131.670 43.164,131.428 44.660,131.349 45.645 L 131.206 47.435 131.859 48.180 L 132.513 48.924 131.308 49.382 C 129.554 50.049,125.976 51.255,125.926 51.196 C 125.902 51.169,125.583 50.548,125.217 49.818 L 124.551 48.490 124.888 46.485 C 125.369 43.618,125.336 43.688,126.138 43.839 C 127.133 44.026,127.458 43.820,128.053 42.630 C 128.347 42.043,128.938 41.093,129.366 40.520 C 130.349 39.204,130.687 38.542,131.173 36.981 L 131.563 35.733 131.698 37.294 C 131.772 38.152,131.934 39.289,132.058 39.821 M144.954 75.709 C 145.610 75.984,146.708 76.371,147.396 76.569 C 148.083 76.767,149.089 77.151,149.631 77.424 C 150.173 77.696,151.143 78.116,151.786 78.357 C 153.164 78.873,153.210 78.955,154.128 82.604 C 154.795 85.254,155.198 87.246,155.360 88.695 L 155.458 89.578 152.885 89.529 C 151.470 89.501,148.709 89.599,146.749 89.745 C 142.408 90.068,142.555 90.110,142.665 88.583 C 142.730 87.679,142.620 86.997,142.209 85.774 C 141.587 83.922,141.384 76.736,141.934 76.027 C 142.646 75.107,143.347 75.034,144.954 75.709 M274.552 79.187 C 275.665 79.575,275.285 79.792,273.490 79.793 C 272.544 79.793,270.891 79.936,269.815 80.111 C 267.664 80.459,267.399 80.421,268.225 79.880 C 269.439 79.084,273.105 78.683,274.552 79.187 M210.707 83.663 C 210.972 84.353,210.829 85.421,210.417 85.833 C 209.715 86.535,209.529 86.362,209.692 85.156 C 209.910 83.544,210.390 82.837,210.707 83.663 M149.583 105.213 C 152.048 105.239,153.590 105.325,153.229 105.417 C 151.772 105.788,141.722 105.652,141.620 105.260 C 141.532 104.926,141.680 104.907,143.418 105.033 C 144.460 105.108,147.234 105.189,149.583 105.213 M32.573 107.031 C 32.122 108.123,31.738 108.498,30.365 109.192 C 29.009 109.878,28.992 109.919,29.635 111.066 C 30.078 111.855,30.145 111.894,30.833 111.760 C 31.773 111.578,31.974 111.589,34.583 111.969 C 35.786 112.144,37.896 112.342,39.271 112.409 C 42.129 112.547,42.710 112.715,43.471 113.621 C 44.433 114.765,45.400 115.087,49.228 115.534 C 50.758 115.713,50.672 116.036,49.004 116.376 C 48.298 116.520,46.979 116.973,46.073 117.382 C 45.167 117.791,44.134 118.184,43.776 118.255 C 43.418 118.327,43.126 118.444,43.127 118.516 C 43.132 118.833,45.689 119.821,46.184 119.697 C 46.496 119.618,47.169 119.741,47.877 120.006 C 48.981 120.419,50.419 120.440,50.415 120.043 C 50.413 119.799,49.063 118.958,48.673 118.958 C 48.473 118.958,48.367 118.865,48.438 118.750 C 48.508 118.635,48.790 118.542,49.064 118.542 C 49.338 118.542,49.817 118.305,50.129 118.016 C 50.441 117.727,50.938 117.441,51.234 117.381 C 56.318 116.354,56.744 115.011,52.121 114.583 C 48.438 114.242,47.850 114.070,47.267 113.166 C 46.475 111.936,43.463 111.250,38.862 111.250 C 37.081 111.250,36.511 111.000,37.734 110.755 C 38.092 110.684,38.820 110.625,39.351 110.625 C 40.088 110.625,40.377 110.527,40.574 110.212 C 41.019 109.501,40.405 109.430,36.094 109.699 C 34.108 109.823,33.750 109.799,33.750 109.540 C 33.750 109.033,35.802 108.147,37.379 107.972 C 40.860 107.587,38.082 106.253,33.791 106.251 C 32.952 106.250,32.875 106.299,32.573 107.031 M146.067 109.844 C 146.667 110.288,146.922 110.316,150.902 110.373 C 156.186 110.450,156.250 110.471,156.250 112.161 C 156.250 112.956,156.085 113.869,155.811 114.583 C 155.472 115.471,155.396 116.026,155.476 117.046 L 155.579 118.364 154.738 118.974 C 154.143 119.405,153.653 119.583,153.067 119.583 C 152.611 119.583,151.523 119.764,150.650 119.986 C 149.777 120.207,148.289 120.551,147.344 120.749 C 145.555 121.125,145.220 121.434,146.094 121.905 C 146.555 122.154,146.552 122.160,145.885 122.335 C 144.611 122.668,145.281 123.218,146.689 122.993 C 147.371 122.884,147.490 122.795,147.387 122.473 C 147.211 121.918,148.326 121.939,148.806 122.500 C 149.125 122.873,149.439 122.919,151.821 122.943 C 154.229 122.967,154.353 122.986,153.145 123.142 C 152.411 123.237,151.520 123.418,151.165 123.543 C 150.811 123.668,149.630 123.902,148.542 124.064 C 147.453 124.226,145.925 124.471,145.147 124.608 C 143.314 124.930,143.298 124.910,143.115 122.039 C 143.032 120.746,142.860 119.360,142.732 118.960 C 142.370 117.826,142.450 117.329,143.131 116.482 L 143.763 115.696 143.620 112.535 L 143.478 109.375 144.456 109.375 C 145.143 109.375,145.622 109.514,146.067 109.844 M53.646 119.583 C 53.575 119.697,53.664 119.999,53.842 120.254 C 54.021 120.509,54.167 121.072,54.167 121.505 C 54.167 122.409,54.600 122.507,56.656 122.066 C 57.858 121.808,57.906 121.716,57.188 121.042 C 56.901 120.773,56.667 120.400,56.667 120.214 C 56.667 119.468,54.054 118.922,53.646 119.583 M58.147 120.528 C 58.714 121.095,60.000 121.182,60.000 120.652 C 60.000 120.256,59.883 120.208,58.914 120.208 C 57.938 120.208,57.860 120.241,58.147 120.528 M50.260 122.022 C 50.003 122.072,49.792 122.185,49.792 122.274 C 49.792 123.308,53.177 123.476,53.295 122.448 L 53.361 121.875 52.045 121.903 C 51.321 121.919,50.518 121.972,50.260 122.022 M61.198 122.732 C 59.671 123.317,61.394 123.958,64.494 123.958 L 66.260 123.958 65.918 124.480 C 65.730 124.766,65.623 125.178,65.679 125.394 C 65.787 125.804,65.075 126.034,63.683 126.039 C 63.235 126.041,63.111 126.129,63.165 126.406 C 63.303 127.125,64.675 127.342,70.313 127.534 C 73.292 127.635,76.620 127.786,77.708 127.870 L 79.688 128.021 79.133 128.397 C 78.829 128.604,77.938 128.876,77.154 129.002 C 75.445 129.276,75.461 129.266,75.936 129.790 C 76.374 130.274,77.245 130.341,77.581 129.917 C 77.708 129.756,78.797 129.415,80.000 129.158 C 83.147 128.487,83.149 128.487,82.663 127.504 L 82.270 126.710 78.166 126.572 C 75.909 126.495,73.547 126.400,72.917 126.360 C 72.286 126.320,70.951 126.279,69.948 126.269 C 68.536 126.254,68.125 126.184,68.125 125.959 C 68.125 125.449,69.507 124.425,70.399 124.274 C 71.352 124.113,71.515 123.970,71.244 123.532 C 71.099 123.297,70.508 123.225,68.598 123.211 C 67.246 123.200,65.954 123.093,65.726 122.972 C 65.111 122.645,61.872 122.473,61.198 122.732 M317.188 123.542 C 317.508 123.896,317.832 123.959,319.355 123.962 C 320.340 123.963,321.286 124.056,321.458 124.167 C 321.674 124.306,321.225 124.370,320.012 124.372 C 319.045 124.374,317.404 124.525,316.366 124.708 C 314.554 125.029,314.438 125.026,313.451 124.634 L 312.422 124.226 312.972 123.675 C 313.714 122.934,316.556 122.844,317.188 123.542 M304.792 124.180 C 304.792 124.372,304.436 125.173,304.258 125.384 C 304.225 125.423,303.863 125.334,303.453 125.186 C 302.676 124.904,302.537 124.630,302.958 124.208 C 303.268 123.899,304.792 123.876,304.792 124.180 M73.428 130.813 C 74.189 131.620,75.295 131.940,76.578 131.725 C 78.612 131.384,77.297 130.384,74.640 130.251 L 72.813 130.160 73.428 130.813 M86.757 131.580 C 86.864 132.009,86.806 132.140,86.467 132.229 C 85.858 132.388,85.924 133.087,86.563 133.248 C 87.264 133.424,87.218 133.623,86.420 133.863 C 85.025 134.282,85.649 134.840,87.513 134.840 C 89.628 134.840,92.025 132.912,90.310 132.590 C 89.664 132.469,89.074 132.089,89.519 132.080 C 91.264 132.047,89.968 131.042,88.181 131.042 L 86.621 131.042 86.757 131.580 M307.533 132.071 C 306.237 132.398,306.299 132.813,307.793 133.827 C 308.771 134.491,309.103 134.504,310.440 133.929 C 312.621 132.990,310.151 131.412,307.533 132.071 M92.314 134.940 C 92.531 135.365,92.708 136.021,92.708 136.398 C 92.708 137.245,93.339 137.317,95.050 136.667 C 95.780 136.389,96.650 136.250,97.656 136.250 C 98.549 136.250,99.167 136.163,99.167 136.037 C 99.167 135.703,98.152 135.399,97.209 135.450 C 95.986 135.516,95.124 135.263,94.573 134.677 C 94.184 134.262,93.891 134.167,93.007 134.167 L 91.920 134.167 92.314 134.940 M391.771 137.158 L 391.146 137.675 391.732 137.900 C 392.863 138.334,398.441 137.524,397.919 137.002 C 397.392 136.475,392.444 136.600,391.771 137.158 M90.417 137.033 C 90.417 137.547,91.315 137.736,91.740 137.311 L 92.176 136.875 91.296 136.875 C 90.813 136.875,90.417 136.946,90.417 137.033 M98.125 137.474 C 98.125 137.737,98.737 138.208,98.885 138.060 C 99.098 137.846,98.780 137.292,98.444 137.292 C 98.269 137.292,98.125 137.374,98.125 137.474 M95.625 138.212 C 95.625 138.393,95.773 138.542,95.955 138.542 C 96.136 138.542,96.248 138.430,96.202 138.294 C 96.073 137.908,95.625 137.844,95.625 138.212 M102.708 138.542 C 102.708 138.889,102.847 138.958,103.542 138.958 C 104.540 138.958,104.625 138.670,103.719 138.354 C 102.821 138.041,102.708 138.062,102.708 138.542 M397.444 138.352 C 395.594 138.788,395.245 139.623,396.792 139.914 C 398.372 140.210,399.735 139.590,399.506 138.678 C 399.353 138.070,398.928 138.002,397.444 138.352 M107.054 139.590 C 107.628 140.068,108.750 140.147,108.750 139.710 C 108.750 139.338,108.289 139.165,107.327 139.174 L 106.563 139.181 107.054 139.590 M392.396 139.530 C 390.128 139.827,389.085 140.425,389.902 140.960 C 390.545 141.382,399.435 141.273,399.870 140.838 C 400.286 140.422,399.557 140.215,397.664 140.212 C 396.665 140.210,395.446 140.078,394.955 139.919 C 393.744 139.526,393.135 139.433,392.396 139.530 M104.296 141.165 L 103.488 142.083 104.152 142.083 C 105.133 142.083,107.708 141.629,107.708 141.456 C 107.708 140.006,105.484 139.817,104.296 141.165 M98.333 142.283 L 97.813 142.442 98.399 142.679 C 99.040 142.939,100.266 142.998,100.484 142.780 C 101.000 142.264,99.520 141.923,98.333 142.283 M111.884 142.616 C 112.370 143.200,112.910 143.360,113.901 143.211 L 114.869 143.066 114.390 142.679 C 113.747 142.158,111.457 142.100,111.884 142.616 M116.212 142.816 C 115.902 143.126,116.338 143.551,117.090 143.671 C 117.577 143.749,118.108 144.031,118.461 144.399 C 119.165 145.134,119.307 145.138,121.025 144.458 C 122.920 143.708,122.945 143.618,121.321 143.358 C 117.804 142.796,116.383 142.645,116.212 142.816 M110.661 145.899 C 110.027 146.574,110.083 146.667,111.124 146.667 C 112.165 146.667,112.596 146.154,111.951 145.683 C 111.435 145.306,111.178 145.349,110.661 145.899 M114.167 146.194 C 113.745 146.341,112.917 147.108,112.917 147.352 C 112.917 147.635,117.226 147.441,117.522 147.144 C 117.859 146.808,114.850 145.956,114.167 146.194 M131.719 146.805 C 131.291 146.977,131.418 147.233,132.160 147.691 C 133.109 148.278,133.542 148.253,133.542 147.611 C 133.542 146.875,132.589 146.453,131.719 146.805 M111.875 147.188 C 111.875 147.359,112.016 147.500,112.188 147.500 C 112.359 147.500,112.500 147.359,112.500 147.188 C 112.500 147.016,112.359 146.875,112.188 146.875 C 112.016 146.875,111.875 147.016,111.875 147.188 M134.105 151.585 C 134.584 151.885,134.601 153.509,134.134 154.420 C 133.996 154.690,134.080 154.862,134.476 155.121 C 134.921 155.413,135.001 155.626,135.007 156.534 C 135.011 157.123,135.144 157.837,135.301 158.122 C 135.893 159.190,133.863 161.234,133.229 160.208 C 133.156 160.090,133.331 160.000,133.634 160.000 C 134.329 160.000,134.330 159.492,133.636 159.037 C 133.188 158.743,132.739 158.708,130.771 158.810 C 128.665 158.919,128.478 158.900,128.854 158.618 C 129.164 158.385,129.552 158.339,130.365 158.438 C 131.053 158.522,131.458 158.493,131.458 158.360 C 131.458 157.985,130.552 157.500,129.849 157.500 C 128.444 157.500,127.977 156.485,129.060 155.783 C 129.460 155.524,129.788 155.241,129.789 155.153 C 129.794 154.860,128.444 154.168,127.865 154.167 C 126.911 154.166,127.062 153.063,128.169 151.934 L 129.047 151.040 131.346 151.169 C 132.721 151.247,133.831 151.414,134.105 151.585 M157.936 155.192 C 157.717 155.330,157.906 155.510,158.688 155.906 C 159.743 156.441,160.208 156.372,160.208 155.682 C 160.208 155.152,158.562 154.796,157.936 155.192 M156.538 158.011 C 156.359 158.475,156.632 158.750,157.269 158.750 C 158.083 158.750,158.190 158.549,157.616 158.097 C 157.022 157.630,156.694 157.604,156.538 158.011 M158.750 160.613 C 158.750 161.172,159.721 161.458,161.617 161.458 C 163.152 161.458,163.731 161.546,164.381 161.878 C 166.125 162.768,172.108 162.887,171.821 162.026 C 171.577 161.294,170.730 161.064,167.917 160.967 C 166.370 160.913,164.840 160.768,164.518 160.643 C 163.795 160.364,158.750 160.338,158.750 160.613 M135.736 162.177 C 136.603 162.539,136.665 163.026,136.029 164.508 C 135.678 165.328,135.643 165.604,135.838 166.036 C 136.076 166.562,136.076 166.562,135.455 165.971 C 134.630 165.185,134.452 164.167,135.140 164.167 C 135.407 164.167,135.625 164.071,135.625 163.953 C 135.625 163.629,134.668 163.333,133.620 163.333 C 133.049 163.333,132.734 163.252,132.813 163.125 C 132.883 163.010,133.217 162.917,133.554 162.917 C 134.069 162.917,134.167 162.833,134.167 162.396 C 134.167 161.779,134.629 161.714,135.736 162.177 M162.656 163.889 C 161.969 164.005,161.940 164.181,162.519 164.705 C 163.008 165.147,165.026 165.240,165.720 164.851 C 166.628 164.343,164.296 163.611,162.656 163.889 M135.208 167.601 L 135.208 168.118 134.466 167.764 C 133.843 167.467,133.784 167.387,134.102 167.262 C 134.869 166.959,135.208 167.063,135.208 167.601 M163.373 167.307 C 163.414 167.430,163.537 167.531,163.646 167.531 C 163.755 167.531,163.877 167.430,163.918 167.307 C 163.959 167.184,163.837 167.083,163.646 167.083 C 163.455 167.083,163.332 167.184,163.373 167.307 M157.441 171.131 C 158.676 171.295,160.242 171.491,160.919 171.567 C 163.265 171.830,161.634 172.036,158.047 171.929 C 155.255 171.846,154.400 171.754,154.115 171.504 C 153.243 170.742,153.926 170.665,157.441 171.131 M158.911 174.393 C 160.694 174.607,162.013 174.960,161.131 174.987 C 160.506 175.006,158.750 175.634,158.750 175.838 C 158.750 176.161,159.845 176.875,160.341 176.875 C 160.612 176.875,160.833 176.969,160.833 177.083 C 160.833 177.696,157.413 177.291,156.582 176.579 C 155.813 175.921,155.793 175.874,156.217 175.740 C 156.997 175.492,156.670 175.025,155.236 174.337 L 154.479 173.975 155.833 174.081 C 156.578 174.139,157.963 174.280,158.911 174.393 M143.125 184.296 C 143.125 184.573,143.068 184.587,142.813 184.375 C 142.641 184.232,142.500 184.080,142.500 184.037 C 142.500 183.994,142.641 183.958,142.813 183.958 C 142.984 183.958,143.125 184.110,143.125 184.296 M140.630 198.594 C 140.649 199.686,141.201 199.853,145.153 199.956 C 149.162 200.061,149.511 199.980,148.623 199.145 C 147.867 198.435,140.618 197.936,140.630 198.594 M139.378 200.798 C 138.397 201.125,139.741 202.111,141.344 202.239 C 142.887 202.363,143.201 202.708,141.771 202.708 C 140.746 202.708,140.623 202.870,141.231 203.421 C 141.563 203.721,142.221 203.801,145.190 203.901 C 149.129 204.035,149.106 204.043,148.233 202.759 C 147.592 201.816,147.761 201.674,149.531 201.670 C 150.937 201.666,151.172 201.436,150.253 200.961 C 149.725 200.688,140.139 200.544,139.378 200.798 " stroke="none" fill="#000000" fill-rule="evenodd"></path></g></svg>