<?xml version="1.0" standalone="no"?>
<!DOCTYPE svg PUBLIC "-//W3C//DTD SVG 20010904//EN"
 "http://www.w3.org/TR/2001/REC-SVG-20010904/DTD/svg10.dtd">
<svg version="1.0" xmlns="http://www.w3.org/2000/svg"
 width="165.000000pt" height="171.000000pt" viewBox="0 0 165.000000 171.000000"
 preserveAspectRatio="xMidYMid meet">

<g transform="translate(0.000000,171.000000) scale(0.100000,-0.100000)"
fill="#000000" stroke="none">
<path d="M0 855 l0 -855 825 0 825 0 0 855 0 855 -825 0 -825 0 0 -855z m414
680 c13 -65 32 -70 271 -70 228 -1 262 -7 356 -69 78 -52 120 -177 85 -260
l-16 -38 52 -57 c105 -115 154 -285 124 -431 -51 -245 -248 -410 -491 -410
-136 0 -255 49 -350 145 -113 112 -168 273 -146 423 13 92 65 204 120 262 32
34 44 40 79 40 67 0 103 -65 66 -118 -36 -51 -102 -5 -76 53 14 31 0 33 -29 4
-37 -37 -79 -113 -99 -178 -49 -158 -5 -333 114 -451 98 -96 185 -133 321
-133 108 0 177 22 264 83 155 109 227 317 172 498 -23 77 -74 162 -122 204
l-31 26 -35 -20 c-76 -45 -163 -14 -163 59 0 39 29 73 63 73 48 0 61 -40 26
-84 l-20 -26 31 0 c42 0 94 52 110 108 17 65 4 110 -46 159 -52 51 -118 73
-216 73 l-68 0 0 -390 0 -390 55 0 c52 0 55 -1 55 -25 l0 -25 -160 0 -160 0 0
25 c0 23 3 25 50 25 l50 0 0 385 0 385 -80 -6 c-143 -12 -200 28 -200 141 0
37 3 45 19 45 14 0 21 -10 25 -35z"/>
</g>
</svg>
