<?xml version="1.0" standalone="no"?>
<!DOCTYPE svg PUBLIC "-//W3C//DTD SVG 20010904//EN"
 "http://www.w3.org/TR/2001/REC-SVG-20010904/DTD/svg10.dtd">
<svg version="1.0" xmlns="http://www.w3.org/2000/svg"
 width="76.000000pt" height="62.000000pt" viewBox="0 0 76.000000 62.000000"
 preserveAspectRatio="xMidYMid meet">

<g transform="translate(0.000000,62.000000) scale(0.100000,-0.100000)"
fill="#000000" stroke="none">
<path d="M230 451 c0 -5 12 -11 28 -13 16 -2 27 -9 27 -18 0 -11 -13 -16 -47
-18 -61 -4 -63 -22 -3 -22 33 0 45 -4 45 -15 0 -10 -10 -15 -30 -15 -20 0 -30
-5 -30 -15 0 -11 11 -15 40 -15 50 0 57 -27 8 -32 -37 -3 -48 -23 -18 -31 34
-9 22 -26 -22 -29 -63 -5 -62 -28 1 -28 37 0 51 -4 51 -14 0 -7 -9 -16 -21
-19 -43 -11 -6 -27 64 -27 130 0 187 32 187 103 0 26 -6 45 -17 53 -17 13 -17
15 -1 27 44 34 40 119 -5 131 -36 10 -257 7 -257 -3z m205 -61 c14 -22 -6 -50
-36 -50 -24 0 -29 4 -29 23 0 13 3 27 7 30 10 11 51 8 58 -3z m-12 -129 c5 -5
6 -18 2 -30 -5 -17 -15 -21 -46 -21 -41 0 -44 5 -32 48 5 21 10 23 37 18 17
-4 34 -10 39 -15z"/>
<path d="M167 344 c-13 -13 -7 -24 14 -24 11 0 19 5 17 12 -5 14 -22 21 -31
12z"/>
<path d="M125 210 c3 -5 10 -10 16 -10 5 0 9 5 9 10 0 6 -7 10 -16 10 -8 0
-12 -4 -9 -10z"/>
</g>
</svg>
